<svg xmlns="http://www.w3.org/2000/svg" xmlns:xlink="http://www.w3.org/1999/xlink" xmlns:lucid="lucid" width="2381" height="1088"><g transform="translate(-56 -20)" lucid:page-tab-id="_0Sc6AJ5H3aB"><path d="M0 0h3360v1360H0z" fill="#fff"/><path d="M960 68a8 8 0 0 1 8-8h552.12a8 8 0 0 1 8 8v84a8 8 0 0 1-8 8H968a8 8 0 0 1-8-8z" stroke="#000" fill-opacity="0"/><use xlink:href="#a" transform="matrix(1,0,0,1,968,68) translate(48.1666666666668 60.888888888888886)"/><use xlink:href="#b" transform="matrix(1,0,0,1,968,68) translate(403.7222222222221 60.888888888888886)"/><path d="M1244.06 310.43v96" stroke="#ccc" stroke-width="2" fill="none"/><path d="M1245.06 310.46h-2v-1.03h2zM1245.06 407.44h-2v-1.03h2z" stroke="#ccc" stroke-width=".05" fill="#ccc"/><path d="M1244.06 528.83v36a12 12 0 0 1-12 12h-799.8a12 12 0 0 0-12 12v36" stroke="#ccc" stroke-width="2" fill="none"/><path d="M1245.06 528.86h-2v-1.03h2zM421.25 625.83h-2v-1.02h2z" stroke="#ccc" stroke-width=".05" fill="#ccc"/><path d="M420.25 702.7v96" stroke="#ccc" stroke-width="2" fill="none"/><path d="M421.25 702.73h-2v-1.03h2zM421.25 799.7h-2v-1.02h2z" stroke="#ccc" stroke-width=".05" fill="#ccc"/><path d="M1244.06 528.83v36a12 12 0 0 1-12 12H978.14a12 12 0 0 0-12 12v36" stroke="#ccc" stroke-width="2" fill="none"/><path d="M1245.06 528.86h-2v-1.03h2zM967.14 625.83h-2v-1.02h2z" stroke="#ccc" stroke-width=".05" fill="#ccc"/><path d="M966.14 697.37V798.7" stroke="#ccc" stroke-width="2" fill="none"/><path d="M967.14 697.4h-2v-1.03h2zM967.13 799.7h-2v-1.02h2z" stroke="#ccc" stroke-width=".05" fill="#ccc"/><path d="M1244.06 528.83v36a12 12 0 0 0 12 12h199.4a12 12 0 0 1 12 12v36" stroke="#ccc" stroke-width="2" fill="none"/><path d="M1245.06 528.86h-2v-1.03h2zM1468.46 625.83h-2v-1.02h2z" stroke="#ccc" stroke-width=".05" fill="#ccc"/><path d="M1467.46 697.37V798.7" stroke="#ccc" stroke-width="2" fill="none"/><path d="M1468.46 697.4h-2v-1.03h2zM1468.46 799.7h-2v-1.02h2z" stroke="#ccc" stroke-width=".05" fill="#ccc"/><path d="M1244.06 528.83v36a12 12 0 0 0 12 12h832.7a12 12 0 0 1 12 12v36" stroke="#ccc" stroke-width="2" fill="none"/><path d="M1245.06 528.86h-2v-1.03h2zM2101.75 625.83h-2v-1.02h2z" stroke="#ccc" stroke-width=".05" fill="#ccc"/><path d="M2100.75 697.37V798.7" stroke="#ccc" stroke-width="2" fill="none"/><path d="M2101.75 697.4h-2v-1.03h2zM2101.76 799.7h-2v-1.02h2z" stroke="#ccc" stroke-width=".05" fill="#ccc"/><path d="M1153.64 203.83a4 4 0 0 1 4-4h172.84a4 4 0 0 1 4 4v100.6a4 4 0 0 1-4 4h-172.84a4 4 0 0 1-4-4z" stroke="#666" stroke-width="2" fill="#fff"/><use xlink:href="#c" transform="matrix(1,0,0,1,1163.637739481415,232.13411458333331) translate(0.0833333333333286 30.66666666666667)"/><path d="M1124.06 412.44a4 4 0 0 1 4-4h232a4 4 0 0 1 4 4v110.4a4 4 0 0 1-4 4h-232a4 4 0 0 1-4-4z" stroke="#666" stroke-width="2" fill="#fff"/><use xlink:href="#d" transform="matrix(1,0,0,1,1134.059614481415,454.1682291666666) translate(27.267283950617298 17.955555555555552)"/><path d="M74.88 630.83a4 4 0 0 1 4-4H761.6a4 4 0 0 1 4 4v65.87a4 4 0 0 1-4 4H78.9a4 4 0 0 1-4-4z" stroke="#666" stroke-width="2" fill="#fff"/><use xlink:href="#e" transform="matrix(1,0,0,1,84.87992698141511,636.8341145833333) translate(9.17345679012351 21.511111111111106)"/><use xlink:href="#f" transform="matrix(1,0,0,1,84.87992698141511,636.8341145833333) translate(213.90246913580248 21.511111111111106)"/><use xlink:href="#g" transform="matrix(1,0,0,1,84.87992698141511,636.8341145833333) translate(258.64259259259256 21.511111111111106)"/><use xlink:href="#h" transform="matrix(1,0,0,1,84.87992698141511,636.8341145833333) translate(501.4641975308641 21.511111111111106)"/><use xlink:href="#i" transform="matrix(1,0,0,1,84.87992698141511,636.8341145833333) translate(526.3364197530864 21.511111111111106)"/><path d="M202.2 804.7a4 4 0 0 1 4-4h428.1a4 4 0 0 1 4 4v276a4 4 0 0 1-4 4H206.2a4 4 0 0 1-4-4z" stroke="#666" stroke-width="2" fill="#fff"/><use xlink:href="#j" transform="matrix(1,0,0,1,212.2002394814151,810.7013020833333) translate(4.660802469135831 17.955555555555552)"/><use xlink:href="#k" transform="matrix(1,0,0,1,212.2002394814151,810.7013020833333) translate(93.87746913580249 17.955555555555552)"/><use xlink:href="#l" transform="matrix(1,0,0,1,212.2002394814151,810.7013020833333) translate(246.93611111111107 17.955555555555552)"/><use xlink:href="#j" transform="matrix(1,0,0,1,212.2002394814151,810.7013020833333) translate(107.34413580246917 44.888888888888886)"/><use xlink:href="#m" transform="matrix(1,0,0,1,212.2002394814151,810.7013020833333) translate(196.5608024691358 44.888888888888886)"/><use xlink:href="#j" transform="matrix(1,0,0,1,212.2002394814151,810.7013020833333) translate(63.88919753086421 71.82222222222221)"/><use xlink:href="#n" transform="matrix(1,0,0,1,212.2002394814151,810.7013020833333) translate(153.10586419753088 71.82222222222221)"/><use xlink:href="#o" transform="matrix(1,0,0,1,212.2002394814151,810.7013020833333) translate(338.5842592592593 71.82222222222221)"/><use xlink:href="#p" transform="matrix(1,0,0,1,212.2002394814151,810.7013020833333) translate(147.6817901234568 98.75555555555553)"/><use xlink:href="#j" transform="matrix(1,0,0,1,212.2002394814151,810.7013020833333) translate(107.96759259259261 125.68888888888887)"/><use xlink:href="#q" transform="matrix(1,0,0,1,212.2002394814151,810.7013020833333) translate(197.18425925925925 125.68888888888887)"/><use xlink:href="#j" transform="matrix(1,0,0,1,212.2002394814151,810.7013020833333) translate(95.49845679012348 152.6222222222222)"/><use xlink:href="#r" transform="matrix(1,0,0,1,212.2002394814151,810.7013020833333) translate(184.71512345679014 152.6222222222222)"/><use xlink:href="#s" transform="matrix(1,0,0,1,212.2002394814151,810.7013020833333) translate(306.1645061728395 152.6222222222222)"/><use xlink:href="#t" transform="matrix(1,0,0,1,212.2002394814151,810.7013020833333) translate(105.19320987654322 179.55555555555554)"/><use xlink:href="#u" transform="matrix(1,0,0,1,212.2002394814151,810.7013020833333) translate(83.12283950617284 206.48888888888888)"/><use xlink:href="#v" transform="matrix(1,0,0,1,212.2002394814151,810.7013020833333) translate(178.94814814814816 206.48888888888888)"/><use xlink:href="#u" transform="matrix(1,0,0,1,212.2002394814151,810.7013020833333) translate(107.09475308641977 233.42222222222222)"/><use xlink:href="#w" transform="matrix(1,0,0,1,212.2002394814151,810.7013020833333) translate(202.92006172839507 233.42222222222222)"/><path d="M785.6 630.83a4 4 0 0 1 4-4h353.06a4 4 0 0 1 4 4v60.54a4 4 0 0 1-4 4H789.6a4 4 0 0 1-4-4z" stroke="#666" stroke-width="2" fill="#fff"/><g><use xlink:href="#x" transform="matrix(1,0,0,1,795.6143019814151,636.8341145833333) translate(19.21944444444449 17.955555555555552)"/><use xlink:href="#y" transform="matrix(1,0,0,1,795.6143019814151,636.8341145833333) translate(190.10895061728397 17.955555555555552)"/><use xlink:href="#z" transform="matrix(1,0,0,1,795.6143019814151,636.8341145833333) translate(227.45401234567902 17.955555555555552)"/></g><path d="M734.94 804.7a4 4 0 0 1 4-4h454.38a4 4 0 0 1 4 4v87.47a4 4 0 0 1-4 4H738.94a4 4 0 0 1-4-4z" stroke="#666" stroke-width="2" fill="#fff"/><g><use xlink:href="#j" transform="matrix(1,0,0,1,744.9424269814151,810.7013020833333) translate(17.66080246913583 17.955555555555552)"/><use xlink:href="#r" transform="matrix(1,0,0,1,744.9424269814151,810.7013020833333) translate(106.87746913580249 17.955555555555552)"/><use xlink:href="#A" transform="matrix(1,0,0,1,744.9424269814151,810.7013020833333) translate(228.32685185185184 17.955555555555552)"/><use xlink:href="#B" transform="matrix(1,0,0,1,744.9424269814151,810.7013020833333) translate(249.89845679012345 17.955555555555552)"/><use xlink:href="#j" transform="matrix(1,0,0,1,744.9424269814151,810.7013020833333) translate(27.604938271604965 44.888888888888886)"/><use xlink:href="#C" transform="matrix(1,0,0,1,744.9424269814151,810.7013020833333) translate(116.82160493827162 44.888888888888886)"/><use xlink:href="#A" transform="matrix(1,0,0,1,744.9424269814151,810.7013020833333) translate(218.3827160493827 44.888888888888886)"/><use xlink:href="#D" transform="matrix(1,0,0,1,744.9424269814151,810.7013020833333) translate(239.9543209876543 44.888888888888886)"/></g><path d="M1166.65 630.83a4 4 0 0 1 4-4h593.62a4 4 0 0 1 4 4v60.54a4 4 0 0 1-4 4h-593.62a4 4 0 0 1-4-4z" stroke="#666" stroke-width="2" fill="#fff"/><g><use xlink:href="#x" transform="matrix(1,0,0,1,1176.653364481415,636.8341145833333) translate(2.588888888888903 17.955555555555552)"/><use xlink:href="#y" transform="matrix(1,0,0,1,1176.653364481415,636.8341145833333) translate(173.47839506172838 17.955555555555552)"/><use xlink:href="#E" transform="matrix(1,0,0,1,1176.653364481415,636.8341145833333) translate(210.82345679012343 17.955555555555552)"/><use xlink:href="#F" transform="matrix(1,0,0,1,1176.653364481415,636.8341145833333) translate(370.0543209876543 17.955555555555552)"/><use xlink:href="#G" transform="matrix(1,0,0,1,1176.653364481415,636.8341145833333) translate(390.8154320987654 17.955555555555552)"/></g><path d="M1249.68 804.7a4 4 0 0 1 4-4h427.56a4 4 0 0 1 4 4v114.4a4 4 0 0 1-4 4h-427.56a4 4 0 0 1-4-4z" stroke="#666" stroke-width="2" fill="#fff"/><g><use xlink:href="#j" transform="matrix(1,0,0,1,1259.676801981415,810.7013020833333) translate(86.8935185185185 17.955555555555552)"/><use xlink:href="#H" transform="matrix(1,0,0,1,1259.676801981415,810.7013020833333) translate(176.11018518518517 17.955555555555552)"/><use xlink:href="#j" transform="matrix(1,0,0,1,1259.676801981415,810.7013020833333) translate(4.223148148148169 44.888888888888886)"/><use xlink:href="#I" transform="matrix(1,0,0,1,1259.676801981415,810.7013020833333) translate(93.43981481481482 44.888888888888886)"/><use xlink:href="#J" transform="matrix(1,0,0,1,1259.676801981415,810.7013020833333) translate(286.21265432098767 44.888888888888886)"/><use xlink:href="#j" transform="matrix(1,0,0,1,1259.676801981415,810.7013020833333) translate(10.675925925925924 71.82222222222221)"/><use xlink:href="#K" transform="matrix(1,0,0,1,1259.676801981415,810.7013020833333) translate(99.89259259259258 71.82222222222221)"/><use xlink:href="#A" transform="matrix(1,0,0,1,1259.676801981415,810.7013020833333) translate(294.7228395061728 71.82222222222221)"/><use xlink:href="#L" transform="matrix(1,0,0,1,1259.676801981415,810.7013020833333) translate(316.2944444444444 71.82222222222221)"/></g><path d="M1788.27 630.83a4 4 0 0 1 4-4h616.97a4 4 0 0 1 4 4v60.54a4 4 0 0 1-4 4h-616.97a4 4 0 0 1-4-4z" stroke="#666" stroke-width="2" fill="#fff"/><g><use xlink:href="#x" transform="matrix(1,0,0,1,1798.270551981415,636.8341145833333) translate(9.755864197530911 17.955555555555552)"/><use xlink:href="#y" transform="matrix(1,0,0,1,1798.270551981415,636.8341145833333) translate(180.6453703703704 17.955555555555552)"/><use xlink:href="#M" transform="matrix(1,0,0,1,1798.270551981415,636.8341145833333) translate(217.99043209876544 17.955555555555552)"/><use xlink:href="#F" transform="matrix(1,0,0,1,1798.270551981415,636.8341145833333) translate(385.8873456790123 17.955555555555552)"/><use xlink:href="#G" transform="matrix(1,0,0,1,1798.270551981415,636.8341145833333) translate(406.6484567901234 17.955555555555552)"/></g><path d="M1867.52 804.7a4 4 0 0 1 4-4H2330a4 4 0 0 1 4 4v168.27a4 4 0 0 1-4 4H1871.5a4 4 0 0 1-4-4z" stroke="#666" stroke-width="2" fill="#fff"/><g><use xlink:href="#N" transform="matrix(1,0,0,1,1877.520551981415,810.7013020833333) translate(98.06049382716051 17.955555555555552)"/><use xlink:href="#O" transform="matrix(1,0,0,1,1877.520551981415,810.7013020833333) translate(187.27716049382718 17.955555555555552)"/><use xlink:href="#N" transform="matrix(1,0,0,1,1877.520551981415,810.7013020833333) translate(6.007098765432119 44.888888888888886)"/><use xlink:href="#P" transform="matrix(1,0,0,1,1877.520551981415,810.7013020833333) translate(95.22376543209877 44.888888888888886)"/><use xlink:href="#Q" transform="matrix(1,0,0,1,1877.520551981415,810.7013020833333) translate(290.054012345679 44.888888888888886)"/><use xlink:href="#R" transform="matrix(1,0,0,1,1877.520551981415,810.7013020833333) translate(311.62561728395065 44.888888888888886)"/><use xlink:href="#N" transform="matrix(1,0,0,1,1877.520551981415,810.7013020833333) translate(51.675308641975334 71.82222222222221)"/><use xlink:href="#S" transform="matrix(1,0,0,1,1877.520551981415,810.7013020833333) translate(140.89197530864197 71.82222222222221)"/><use xlink:href="#T" transform="matrix(1,0,0,1,1877.520551981415,810.7013020833333) translate(257.3537037037037 71.82222222222221)"/><use xlink:href="#U" transform="matrix(1,0,0,1,1877.520551981415,810.7013020833333) translate(294.69876543209875 71.82222222222221)"/></g><defs><path fill="#3a414a" d="M140-251c80 0 125 45 125 126S219 4 139 4C58 4 15-44 15-125s44-126 125-126zm-1 214c52 0 73-35 73-88 0-50-21-86-72-86-52 0-73 35-73 86s22 88 72 88" id="V"/><path fill="#3a414a" d="M240-174c0 40-23 61-54 70L253 0h-59l-57-94H76V0H24v-248c93 4 217-23 216 74zM76-134c48-2 112 12 112-38 0-48-66-32-112-35v73" id="W"/><path fill="#3a414a" d="M67-125c0 54 23 88 75 88 28 0 53-7 68-21v-34h-60v-39h108v91C232-14 192 4 140 4 58 4 20-42 15-125 8-236 126-280 215-234c19 10 29 26 37 47l-47 15c-11-23-29-39-63-39-53 1-75 33-75 86" id="X"/><path fill="#3a414a" d="M199 0l-22-63H83L61 0H9l90-248h61L250 0h-51zm-33-102l-36-108c-10 38-24 72-36 108h72" id="Y"/><path fill="#3a414a" d="M175 0L67-191c6 58 2 128 3 191H24v-248h59L193-55c-6-58-2-129-3-193h46V0h-61" id="Z"/><path fill="#3a414a" d="M24 0v-248h52V0H24" id="aa"/><path fill="#3a414a" d="M230 0l2-204L168 0h-37L68-204 70 0H24v-248h70l56 185 57-185h69V0h-46" id="ab"/><g id="a"><use transform="matrix(0.12345679012345673,0,0,0.12345679012345673,0,0)" xlink:href="#V"/><use transform="matrix(0.12345679012345673,0,0,0.12345679012345673,34.567901234567884,0)" xlink:href="#W"/><use transform="matrix(0.12345679012345673,0,0,0.12345679012345673,66.54320987654317,0)" xlink:href="#X"/><use transform="matrix(0.12345679012345673,0,0,0.12345679012345673,101.11111111111106,0)" xlink:href="#Y"/><use transform="matrix(0.12345679012345673,0,0,0.12345679012345673,133.08641975308635,0)" xlink:href="#Z"/><use transform="matrix(0.12345679012345673,0,0,0.12345679012345673,165.06172839506164,0)" xlink:href="#aa"/><use transform="matrix(0.12345679012345673,0,0,0.12345679012345673,177.4074074074073,0)" xlink:href="#X"/><use transform="matrix(0.12345679012345673,0,0,0.12345679012345673,211.97530864197518,0)" xlink:href="#W"/><use transform="matrix(0.12345679012345673,0,0,0.12345679012345673,243.95061728395046,0)" xlink:href="#Y"/><use transform="matrix(0.12345679012345673,0,0,0.12345679012345673,275.92592592592575,0)" xlink:href="#ab"/><use transform="matrix(0.12345679012345673,0,0,0.12345679012345673,312.8395061728393,0)" xlink:href="#Y"/></g><path fill="#3a414a" d="M169-182c-1-43-94-46-97-3 18 66 151 10 154 114 3 95-165 93-204 36-6-8-10-19-12-30l50-8c3 46 112 56 116 5-17-69-150-10-154-114-4-87 153-88 188-35 5 8 8 18 10 28" id="ac"/><g id="b"><use transform="matrix(0.12345679012345673,0,0,0.12345679012345673,0,0)" xlink:href="#X"/><use transform="matrix(0.12345679012345673,0,0,0.12345679012345673,34.567901234567884,0)" xlink:href="#ab"/><use transform="matrix(0.12345679012345673,0,0,0.12345679012345673,71.48148148148144,0)" xlink:href="#ac"/></g><path d="M67-125c0 54 23 88 75 88 28 0 53-7 68-21v-34h-60v-39h108v91C232-14 192 4 140 4 58 4 20-42 15-125 8-236 126-280 215-234c19 10 29 26 37 47l-47 15c-11-23-29-39-63-39-53 1-75 33-75 86" id="ad"/><path d="M24 0v-248h195v40H76v63h132v40H76v65h150V0H24" id="ae"/><path d="M240-174c0 40-23 61-54 70L253 0h-59l-57-94H76V0H24v-248c93 4 217-23 216 74zM76-134c48-2 112 12 112-38 0-48-66-32-112-35v73" id="af"/><path d="M175 0L67-191c6 58 2 128 3 191H24v-248h59L193-55c-6-58-2-129-3-193h46V0h-61" id="ag"/><path d="M136-208V0H84v-208H4v-40h212v40h-80" id="ah"/><g id="c"><use transform="matrix(0.0925925925925926,0,0,0.0925925925925926,0,0)" xlink:href="#ad"/><use transform="matrix(0.0925925925925926,0,0,0.0925925925925926,25.925925925925927,0)" xlink:href="#ae"/><use transform="matrix(0.0925925925925926,0,0,0.0925925925925926,48.14814814814815,0)" xlink:href="#af"/><use transform="matrix(0.0925925925925926,0,0,0.0925925925925926,72.12962962962963,0)" xlink:href="#ae"/><use transform="matrix(0.0925925925925926,0,0,0.0925925925925926,94.35185185185186,0)" xlink:href="#ag"/><use transform="matrix(0.0925925925925926,0,0,0.0925925925925926,118.33333333333334,0)" xlink:href="#ah"/><use transform="matrix(0.0925925925925926,0,0,0.0925925925925926,138.61111111111111,0)" xlink:href="#ae"/></g><path d="M169-182c-1-43-94-46-97-3 18 66 151 10 154 114 3 95-165 93-204 36-6-8-10-19-12-30l50-8c3 46 112 56 116 5-17-69-150-10-154-114-4-87 153-88 188-35 5 8 8 18 10 28" id="ai"/><path d="M238-95c0 69-44 99-111 99C63 4 22-25 22-93v-155h51v151c-1 38 19 59 55 60 90 1 49-130 58-211h52v153" id="aj"/><path d="M182-130c37 4 62 22 62 59C244 23 116-4 24 0v-248c84 5 203-23 205 63 0 31-19 50-47 55zM76-148c40-3 101 13 101-30 0-44-60-28-101-31v61zm0 110c48-3 116 14 116-37 0-48-69-32-116-35v72" id="ak"/><path d="M67-125c0 53 21 87 73 88 37 1 54-22 65-47l45 17C233-25 199 4 140 4 58 4 20-42 15-125 8-235 124-281 211-232c18 10 29 29 36 50l-46 12c-8-25-30-41-62-41-52 0-71 34-72 86" id="al"/><path d="M24 0v-248h52V0H24" id="am"/><path d="M199 0l-22-63H83L61 0H9l90-248h61L250 0h-51zm-33-102l-36-108c-10 38-24 72-36 108h72" id="an"/><g id="d"><use transform="matrix(0.06234567901234567,0,0,0.06234567901234567,0,0)" xlink:href="#ai"/><use transform="matrix(0.06234567901234567,0,0,0.06234567901234567,14.96296296296296,0)" xlink:href="#aj"/><use transform="matrix(0.06234567901234567,0,0,0.06234567901234567,31.11049382716049,0)" xlink:href="#ak"/><use transform="matrix(0.06234567901234567,0,0,0.06234567901234567,47.25802469135802,0)" xlink:href="#ad"/><use transform="matrix(0.06234567901234567,0,0,0.06234567901234567,64.7148148148148,0)" xlink:href="#ae"/><use transform="matrix(0.06234567901234567,0,0,0.06234567901234567,79.67777777777776,0)" xlink:href="#af"/><use transform="matrix(0.06234567901234567,0,0,0.06234567901234567,95.82530864197528,0)" xlink:href="#ae"/><use transform="matrix(0.06234567901234567,0,0,0.06234567901234567,110.78827160493825,0)" xlink:href="#ag"/><use transform="matrix(0.06234567901234567,0,0,0.06234567901234567,126.93580246913578,0)" xlink:href="#al"/><use transform="matrix(0.06234567901234567,0,0,0.06234567901234567,143.08333333333331,0)" xlink:href="#am"/><use transform="matrix(0.06234567901234567,0,0,0.06234567901234567,149.31790123456787,0)" xlink:href="#an"/></g><g id="e"><use transform="matrix(0.07469135802469135,0,0,0.07469135802469135,0,0)" xlink:href="#ai"/><use transform="matrix(0.07469135802469135,0,0,0.07469135802469135,17.925925925925924,0)" xlink:href="#aj"/><use transform="matrix(0.07469135802469135,0,0,0.07469135802469135,37.27098765432098,0)" xlink:href="#ak"/><use transform="matrix(0.07469135802469135,0,0,0.07469135802469135,56.61604938271604,0)" xlink:href="#ad"/><use transform="matrix(0.07469135802469135,0,0,0.07469135802469135,77.52962962962961,0)" xlink:href="#ae"/><use transform="matrix(0.07469135802469135,0,0,0.07469135802469135,95.45555555555556,0)" xlink:href="#af"/><use transform="matrix(0.07469135802469135,0,0,0.07469135802469135,114.8006172839506,0)" xlink:href="#ae"/><use transform="matrix(0.07469135802469135,0,0,0.07469135802469135,132.72654320987652,0)" xlink:href="#ag"/><use transform="matrix(0.07469135802469135,0,0,0.07469135802469135,152.07160493827158,0)" xlink:href="#al"/><use transform="matrix(0.07469135802469135,0,0,0.07469135802469135,171.41666666666663,0)" xlink:href="#am"/><use transform="matrix(0.07469135802469135,0,0,0.07469135802469135,178.88580246913577,0)" xlink:href="#an"/></g><path d="M24-248c120-7 223 5 221 122C244-46 201 0 124 0H24v-248zM76-40c74 7 117-18 117-86 0-67-45-88-117-82v168" id="ao"/><g id="f"><use transform="matrix(0.07469135802469135,0,0,0.07469135802469135,0,0)" xlink:href="#ao"/><use transform="matrix(0.07469135802469135,0,0,0.07469135802469135,19.34506172839506,0)" xlink:href="#ae"/></g><path d="M230 0l2-204L168 0h-37L68-204 70 0H24v-248h70l56 185 57-185h69V0h-46" id="ap"/><path d="M110-269v-5l44-45h46v8l-60 42h-30zm30 18c80 0 125 45 125 126S219 4 139 4C58 4 15-44 15-125s44-126 125-126zm-1 214c52 0 73-35 73-88 0-50-21-86-72-86-52 0-73 35-73 86s22 88 72 88" id="aq"/><g id="g"><use transform="matrix(0.07469135802469135,0,0,0.07469135802469135,0,0)" xlink:href="#an"/><use transform="matrix(0.07469135802469135,0,0,0.07469135802469135,19.34506172839506,0)" xlink:href="#ao"/><use transform="matrix(0.07469135802469135,0,0,0.07469135802469135,38.69012345679012,0)" xlink:href="#ap"/><use transform="matrix(0.07469135802469135,0,0,0.07469135802469135,61.02283950617283,0)" xlink:href="#am"/><use transform="matrix(0.07469135802469135,0,0,0.07469135802469135,68.49197530864197,0)" xlink:href="#ag"/><use transform="matrix(0.07469135802469135,0,0,0.07469135802469135,87.83703703703702,0)" xlink:href="#am"/><use transform="matrix(0.07469135802469135,0,0,0.07469135802469135,95.30617283950616,0)" xlink:href="#ai"/><use transform="matrix(0.07469135802469135,0,0,0.07469135802469135,113.23209876543208,0)" xlink:href="#ah"/><use transform="matrix(0.07469135802469135,0,0,0.07469135802469135,129.5895061728395,0)" xlink:href="#af"/><use transform="matrix(0.07469135802469135,0,0,0.07469135802469135,148.93456790123454,0)" xlink:href="#an"/><use transform="matrix(0.07469135802469135,0,0,0.07469135802469135,168.2796296296296,0)" xlink:href="#al"/><use transform="matrix(0.07469135802469135,0,0,0.07469135802469135,187.62469135802465,0)" xlink:href="#am"/><use transform="matrix(0.07469135802469135,0,0,0.07469135802469135,195.0938271604938,0)" xlink:href="#aq"/><use transform="matrix(0.07469135802469135,0,0,0.07469135802469135,216.00740740740738,0)" xlink:href="#ag"/></g><path d="M146-102V0H94v-102L6-248h54l60 105 60-105h54" id="ar"/><use transform="matrix(0.07469135802469135,0,0,0.07469135802469135,0,0)" xlink:href="#ar" id="h"/><path d="M76-208v77h127v40H76V0H24v-248h183v40H76" id="as"/><path d="M210 0H11v-37l134-170H24v-41h178v36L68-41h142V0" id="at"/><g id="i"><use transform="matrix(0.07469135802469135,0,0,0.07469135802469135,0,0)" xlink:href="#as"/><use transform="matrix(0.07469135802469135,0,0,0.07469135802469135,16.357407407407404,0)" xlink:href="#am"/><use transform="matrix(0.07469135802469135,0,0,0.07469135802469135,23.82654320987654,0)" xlink:href="#ag"/><use transform="matrix(0.07469135802469135,0,0,0.07469135802469135,43.1716049382716,0)" xlink:href="#an"/><use transform="matrix(0.07469135802469135,0,0,0.07469135802469135,62.51666666666666,0)" xlink:href="#ag"/><use transform="matrix(0.07469135802469135,0,0,0.07469135802469135,81.86172839506172,0)" xlink:href="#at"/><use transform="matrix(0.07469135802469135,0,0,0.07469135802469135,98.21913580246913,0)" xlink:href="#an"/><use transform="matrix(0.07469135802469135,0,0,0.07469135802469135,117.56419753086419,0)" xlink:href="#ai"/></g><path d="M24-248c93 1 206-16 204 79-1 75-69 88-152 82V0H24v-248zm52 121c47 0 100 7 100-41 0-47-54-39-100-39v80" id="au"/><path d="M140-251c80 0 125 45 125 126S219 4 139 4C58 4 15-44 15-125s44-126 125-126zm-1 214c52 0 73-35 73-88 0-50-21-86-72-86-52 0-73 35-73 86s22 88 72 88" id="av"/><path d="M24 0v-54h51V0H24" id="aw"/><g id="j"><use transform="matrix(0.06234567901234567,0,0,0.06234567901234567,0,0)" xlink:href="#ao"/><use transform="matrix(0.06234567901234567,0,0,0.06234567901234567,16.147530864197527,0)" xlink:href="#ae"/><use transform="matrix(0.06234567901234567,0,0,0.06234567901234567,31.11049382716049,0)" xlink:href="#au"/><use transform="matrix(0.06234567901234567,0,0,0.06234567901234567,46.07345679012345,0)" xlink:href="#ah"/><use transform="matrix(0.06234567901234567,0,0,0.06234567901234567,59.29074074074073,0)" xlink:href="#av"/><use transform="matrix(0.06234567901234567,0,0,0.06234567901234567,76.74753086419751,0)" xlink:href="#aw"/></g><path d="M24 0v-248h52v208h133V0H24" id="ax"/><g id="k"><use transform="matrix(0.06234567901234567,0,0,0.06234567901234567,0,0)" xlink:href="#af"/><use transform="matrix(0.06234567901234567,0,0,0.06234567901234567,16.147530864197527,0)" xlink:href="#ae"/><use transform="matrix(0.06234567901234567,0,0,0.06234567901234567,31.11049382716049,0)" xlink:href="#ax"/><use transform="matrix(0.06234567901234567,0,0,0.06234567901234567,44.764197530864195,0)" xlink:href="#an"/><use transform="matrix(0.06234567901234567,0,0,0.06234567901234567,60.91172839506172,0)" xlink:href="#al"/><use transform="matrix(0.06234567901234567,0,0,0.06234567901234567,77.05925925925925,0)" xlink:href="#am"/><use transform="matrix(0.06234567901234567,0,0,0.06234567901234567,83.29382716049382,0)" xlink:href="#av"/><use transform="matrix(0.06234567901234567,0,0,0.06234567901234567,100.7506172839506,0)" xlink:href="#ag"/><use transform="matrix(0.06234567901234567,0,0,0.06234567901234567,116.89814814814812,0)" xlink:href="#ae"/><use transform="matrix(0.06234567901234567,0,0,0.06234567901234567,131.8611111111111,0)" xlink:href="#ai"/></g><g id="l"><use transform="matrix(0.06234567901234567,0,0,0.06234567901234567,0,0)" xlink:href="#am"/><use transform="matrix(0.06234567901234567,0,0,0.06234567901234567,6.234567901234566,0)" xlink:href="#ag"/><use transform="matrix(0.06234567901234567,0,0,0.06234567901234567,22.382098765432094,0)" xlink:href="#ao"/><use transform="matrix(0.06234567901234567,0,0,0.06234567901234567,38.529629629629625,0)" xlink:href="#aj"/><use transform="matrix(0.06234567901234567,0,0,0.06234567901234567,54.67716049382715,0)" xlink:href="#ai"/><use transform="matrix(0.06234567901234567,0,0,0.06234567901234567,69.6401234567901,0)" xlink:href="#ah"/><use transform="matrix(0.06234567901234567,0,0,0.06234567901234567,83.2938271604938,0)" xlink:href="#af"/><use transform="matrix(0.06234567901234567,0,0,0.06234567901234567,99.44135802469134,0)" xlink:href="#am"/><use transform="matrix(0.06234567901234567,0,0,0.06234567901234567,105.67592592592591,0)" xlink:href="#an"/><use transform="matrix(0.06234567901234567,0,0,0.06234567901234567,121.82345679012343,0)" xlink:href="#ax"/><use transform="matrix(0.06234567901234567,0,0,0.06234567901234567,135.47716049382714,0)" xlink:href="#ae"/><use transform="matrix(0.06234567901234567,0,0,0.06234567901234567,150.4401234567901,0)" xlink:href="#ai"/></g><g id="m"><use transform="matrix(0.06234567901234567,0,0,0.06234567901234567,0,0)" xlink:href="#as"/><use transform="matrix(0.06234567901234567,0,0,0.06234567901234567,13.653703703703702,0)" xlink:href="#am"/><use transform="matrix(0.06234567901234567,0,0,0.06234567901234567,19.888271604938268,0)" xlink:href="#ag"/><use transform="matrix(0.06234567901234567,0,0,0.06234567901234567,36.035802469135795,0)" xlink:href="#an"/><use transform="matrix(0.06234567901234567,0,0,0.06234567901234567,52.18333333333332,0)" xlink:href="#ag"/><use transform="matrix(0.06234567901234567,0,0,0.06234567901234567,68.33086419753084,0)" xlink:href="#at"/><use transform="matrix(0.06234567901234567,0,0,0.06234567901234567,81.98456790123454,0)" xlink:href="#an"/><use transform="matrix(0.06234567901234567,0,0,0.06234567901234567,98.13209876543206,0)" xlink:href="#ai"/></g><path d="M140-251c80 0 125 45 125 126 0 70-33 111-92 124 6 28 34 38 68 31l-1 36C177 83 129 55 120 2 51-6 15-50 15-125c0-81 44-126 125-126zm-1 214c52 0 73-35 73-88 0-50-21-86-72-86-52 0-73 35-73 86s22 88 72 88" id="ay"/><g id="n"><use transform="matrix(0.06234567901234567,0,0,0.06234567901234567,0,0)" xlink:href="#an"/><use transform="matrix(0.06234567901234567,0,0,0.06234567901234567,16.147530864197527,0)" xlink:href="#ao"/><use transform="matrix(0.06234567901234567,0,0,0.06234567901234567,32.295061728395055,0)" xlink:href="#ay"/><use transform="matrix(0.06234567901234567,0,0,0.06234567901234567,49.75185185185184,0)" xlink:href="#aj"/><use transform="matrix(0.06234567901234567,0,0,0.06234567901234567,65.89938271604936,0)" xlink:href="#am"/><use transform="matrix(0.06234567901234567,0,0,0.06234567901234567,72.13395061728393,0)" xlink:href="#ai"/><use transform="matrix(0.06234567901234567,0,0,0.06234567901234567,87.09691358024689,0)" xlink:href="#am"/><use transform="matrix(0.06234567901234567,0,0,0.06234567901234567,93.33148148148146,0)" xlink:href="#al"/><use transform="matrix(0.06234567901234567,0,0,0.06234567901234567,109.479012345679,0)" xlink:href="#am"/><use transform="matrix(0.06234567901234567,0,0,0.06234567901234567,115.71358024691357,0)" xlink:href="#av"/><use transform="matrix(0.06234567901234567,0,0,0.06234567901234567,133.17037037037036,0)" xlink:href="#ag"/><use transform="matrix(0.06234567901234567,0,0,0.06234567901234567,149.3179012345679,0)" xlink:href="#ae"/><use transform="matrix(0.06234567901234567,0,0,0.06234567901234567,164.28086419753086,0)" xlink:href="#ai"/></g><use transform="matrix(0.06234567901234567,0,0,0.06234567901234567,0,0)" xlink:href="#ar" id="o"/><path d="M147 0H94L2-248h55l64 206c17-72 42-137 63-206h54" id="az"/><g id="p"><use transform="matrix(0.06234567901234567,0,0,0.06234567901234567,0,0)" xlink:href="#ai"/><use transform="matrix(0.06234567901234567,0,0,0.06234567901234567,14.96296296296296,0)" xlink:href="#ae"/><use transform="matrix(0.06234567901234567,0,0,0.06234567901234567,29.92592592592592,0)" xlink:href="#af"/><use transform="matrix(0.06234567901234567,0,0,0.06234567901234567,45.63703703703703,0)" xlink:href="#az"/><use transform="matrix(0.06234567901234567,0,0,0.06234567901234567,60.599999999999994,0)" xlink:href="#am"/><use transform="matrix(0.06234567901234567,0,0,0.06234567901234567,66.83456790123456,0)" xlink:href="#al"/><use transform="matrix(0.06234567901234567,0,0,0.06234567901234567,82.98209876543208,0)" xlink:href="#am"/><use transform="matrix(0.06234567901234567,0,0,0.06234567901234567,89.21666666666665,0)" xlink:href="#av"/><use transform="matrix(0.06234567901234567,0,0,0.06234567901234567,106.67345679012344,0)" xlink:href="#ai"/></g><g id="q"><use transform="matrix(0.06234567901234567,0,0,0.06234567901234567,0,0)" xlink:href="#an"/><use transform="matrix(0.06234567901234567,0,0,0.06234567901234567,16.147530864197527,0)" xlink:href="#ax"/><use transform="matrix(0.06234567901234567,0,0,0.06234567901234567,29.80123456790123,0)" xlink:href="#ap"/><use transform="matrix(0.06234567901234567,0,0,0.06234567901234567,48.44259259259258,0)" xlink:href="#an"/><use transform="matrix(0.06234567901234567,0,0,0.06234567901234567,64.59012345679011,0)" xlink:href="#al"/><use transform="matrix(0.06234567901234567,0,0,0.06234567901234567,80.73765432098764,0)" xlink:href="#ae"/><use transform="matrix(0.06234567901234567,0,0,0.06234567901234567,95.7006172839506,0)" xlink:href="#ag"/></g><g id="r"><use transform="matrix(0.06234567901234567,0,0,0.06234567901234567,0,0)" xlink:href="#an"/><use transform="matrix(0.06234567901234567,0,0,0.06234567901234567,14.464197530864194,0)" xlink:href="#ah"/><use transform="matrix(0.06234567901234567,0,0,0.06234567901234567,28.117901234567896,0)" xlink:href="#ae"/><use transform="matrix(0.06234567901234567,0,0,0.06234567901234567,43.08086419753086,0)" xlink:href="#ag"/><use transform="matrix(0.06234567901234567,0,0,0.06234567901234567,59.228395061728385,0)" xlink:href="#al"/><use transform="matrix(0.06234567901234567,0,0,0.06234567901234567,75.37592592592591,0)" xlink:href="#am"/><use transform="matrix(0.06234567901234567,0,0,0.06234567901234567,81.61049382716048,0)" xlink:href="#aq"/><use transform="matrix(0.06234567901234567,0,0,0.06234567901234567,99.06728395061727,0)" xlink:href="#ag"/></g><use transform="matrix(0.06234567901234567,0,0,0.06234567901234567,0,0)" xlink:href="#an" id="s"/><g id="t"><use transform="matrix(0.06234567901234567,0,0,0.06234567901234567,0,0)" xlink:href="#al"/><use transform="matrix(0.06234567901234567,0,0,0.06234567901234567,16.147530864197527,0)" xlink:href="#av"/><use transform="matrix(0.06234567901234567,0,0,0.06234567901234567,33.60432098765432,0)" xlink:href="#ag"/><use transform="matrix(0.06234567901234567,0,0,0.06234567901234567,49.751851851851846,0)" xlink:href="#al"/><use transform="matrix(0.06234567901234567,0,0,0.06234567901234567,65.89938271604937,0)" xlink:href="#ae"/><use transform="matrix(0.06234567901234567,0,0,0.06234567901234567,80.86234567901234,0)" xlink:href="#ai"/><use transform="matrix(0.06234567901234567,0,0,0.06234567901234567,95.8253086419753,0)" xlink:href="#am"/><use transform="matrix(0.06234567901234567,0,0,0.06234567901234567,102.05987654320987,0)" xlink:href="#av"/><use transform="matrix(0.06234567901234567,0,0,0.06234567901234567,119.51666666666665,0)" xlink:href="#ag"/><use transform="matrix(0.06234567901234567,0,0,0.06234567901234567,135.6641975308642,0)" xlink:href="#an"/><use transform="matrix(0.06234567901234567,0,0,0.06234567901234567,151.81172839506172,0)" xlink:href="#af"/><use transform="matrix(0.06234567901234567,0,0,0.06234567901234567,167.95925925925926,0)" xlink:href="#am"/><use transform="matrix(0.06234567901234567,0,0,0.06234567901234567,174.1938271604938,0)" xlink:href="#av"/><use transform="matrix(0.06234567901234567,0,0,0.06234567901234567,191.6506172839506,0)" xlink:href="#ai"/></g><g id="u"><use transform="matrix(0.06234567901234567,0,0,0.06234567901234567,0,0)" xlink:href="#al"/><use transform="matrix(0.06234567901234567,0,0,0.06234567901234567,16.147530864197527,0)" xlink:href="#av"/><use transform="matrix(0.06234567901234567,0,0,0.06234567901234567,33.60432098765432,0)" xlink:href="#av"/><use transform="matrix(0.06234567901234567,0,0,0.06234567901234567,51.0611111111111,0)" xlink:href="#af"/><use transform="matrix(0.06234567901234567,0,0,0.06234567901234567,67.20864197530864,0)" xlink:href="#ao"/><use transform="matrix(0.06234567901234567,0,0,0.06234567901234567,83.35617283950617,0)" xlink:href="#aw"/></g><g id="v"><use transform="matrix(0.06234567901234567,0,0,0.06234567901234567,0,0)" xlink:href="#am"/><use transform="matrix(0.06234567901234567,0,0,0.06234567901234567,6.234567901234566,0)" xlink:href="#ag"/><use transform="matrix(0.06234567901234567,0,0,0.06234567901234567,22.382098765432094,0)" xlink:href="#as"/><use transform="matrix(0.06234567901234567,0,0,0.06234567901234567,36.035802469135795,0)" xlink:href="#av"/><use transform="matrix(0.06234567901234567,0,0,0.06234567901234567,53.49259259259259,0)" xlink:href="#af"/><use transform="matrix(0.06234567901234567,0,0,0.06234567901234567,69.64012345679012,0)" xlink:href="#ap"/><use transform="matrix(0.06234567901234567,0,0,0.06234567901234567,88.28148148148148,0)" xlink:href="#an"/><use transform="matrix(0.06234567901234567,0,0,0.06234567901234567,102.74567901234568,0)" xlink:href="#ah"/><use transform="matrix(0.06234567901234567,0,0,0.06234567901234567,116.39938271604937,0)" xlink:href="#am"/><use transform="matrix(0.06234567901234567,0,0,0.06234567901234567,122.63395061728394,0)" xlink:href="#al"/><use transform="matrix(0.06234567901234567,0,0,0.06234567901234567,138.78148148148148,0)" xlink:href="#an"/></g><path d="M176-78C186 10 51 31 16-35c-5-9-9-19-11-32l52-8c4 21 12 37 35 38 23 0 32-16 32-40v-130H75v-41h101v170" id="aA"/><g id="w"><use transform="matrix(0.06234567901234567,0,0,0.06234567901234567,0,0)" xlink:href="#aA"/><use transform="matrix(0.06234567901234567,0,0,0.06234567901234567,12.469135802469133,0)" xlink:href="#aj"/><use transform="matrix(0.06234567901234567,0,0,0.06234567901234567,28.61666666666666,0)" xlink:href="#af"/><use transform="matrix(0.06234567901234567,0,0,0.06234567901234567,44.76419753086419,0)" xlink:href="#am"/><use transform="matrix(0.06234567901234567,0,0,0.06234567901234567,50.99876543209875,0)" xlink:href="#ao"/><use transform="matrix(0.06234567901234567,0,0,0.06234567901234567,67.14629629629627,0)" xlink:href="#am"/><use transform="matrix(0.06234567901234567,0,0,0.06234567901234567,73.38086419753084,0)" xlink:href="#al"/><use transform="matrix(0.06234567901234567,0,0,0.06234567901234567,89.52839506172836,0)" xlink:href="#av"/></g><g id="x"><use transform="matrix(0.06234567901234567,0,0,0.06234567901234567,0,0)" xlink:href="#ai"/><use transform="matrix(0.06234567901234567,0,0,0.06234567901234567,14.96296296296296,0)" xlink:href="#aj"/><use transform="matrix(0.06234567901234567,0,0,0.06234567901234567,31.11049382716049,0)" xlink:href="#ak"/><use transform="matrix(0.06234567901234567,0,0,0.06234567901234567,47.25802469135802,0)" xlink:href="#ad"/><use transform="matrix(0.06234567901234567,0,0,0.06234567901234567,64.7148148148148,0)" xlink:href="#ae"/><use transform="matrix(0.06234567901234567,0,0,0.06234567901234567,79.67777777777776,0)" xlink:href="#af"/><use transform="matrix(0.06234567901234567,0,0,0.06234567901234567,95.82530864197528,0)" xlink:href="#ae"/><use transform="matrix(0.06234567901234567,0,0,0.06234567901234567,110.78827160493825,0)" xlink:href="#ag"/><use transform="matrix(0.06234567901234567,0,0,0.06234567901234567,126.93580246913578,0)" xlink:href="#al"/><use transform="matrix(0.06234567901234567,0,0,0.06234567901234567,143.08333333333331,0)" xlink:href="#am"/><use transform="matrix(0.06234567901234567,0,0,0.06234567901234567,149.31790123456787,0)" xlink:href="#an"/></g><g id="y"><use transform="matrix(0.06234567901234567,0,0,0.06234567901234567,0,0)" xlink:href="#ao"/><use transform="matrix(0.06234567901234567,0,0,0.06234567901234567,16.147530864197527,0)" xlink:href="#ae"/></g><g id="z"><use transform="matrix(0.06234567901234567,0,0,0.06234567901234567,0,0)" xlink:href="#au"/><use transform="matrix(0.06234567901234567,0,0,0.06234567901234567,13.279629629629627,0)" xlink:href="#an"/><use transform="matrix(0.06234567901234567,0,0,0.06234567901234567,29.427160493827152,0)" xlink:href="#ao"/><use transform="matrix(0.06234567901234567,0,0,0.06234567901234567,45.57469135802468,0)" xlink:href="#af"/><use transform="matrix(0.06234567901234567,0,0,0.06234567901234567,61.72222222222221,0)" xlink:href="#aq"/><use transform="matrix(0.06234567901234567,0,0,0.06234567901234567,79.179012345679,0)" xlink:href="#ag"/></g><use transform="matrix(0.06234567901234567,0,0,0.06234567901234567,0,0)" xlink:href="#an" id="A"/><g id="B"><use transform="matrix(0.06234567901234567,0,0,0.06234567901234567,0,0)" xlink:href="#ak"/><use transform="matrix(0.06234567901234567,0,0,0.06234567901234567,16.147530864197527,0)" xlink:href="#ae"/><use transform="matrix(0.06234567901234567,0,0,0.06234567901234567,31.11049382716049,0)" xlink:href="#ag"/><use transform="matrix(0.06234567901234567,0,0,0.06234567901234567,47.25802469135802,0)" xlink:href="#ae"/><use transform="matrix(0.06234567901234567,0,0,0.06234567901234567,62.22098765432098,0)" xlink:href="#as"/><use transform="matrix(0.06234567901234567,0,0,0.06234567901234567,75.87469135802468,0)" xlink:href="#am"/><use transform="matrix(0.06234567901234567,0,0,0.06234567901234567,82.10925925925925,0)" xlink:href="#al"/><use transform="matrix(0.06234567901234567,0,0,0.06234567901234567,98.25679012345677,0)" xlink:href="#am"/><use transform="matrix(0.06234567901234567,0,0,0.06234567901234567,104.49135802469134,0)" xlink:href="#an"/><use transform="matrix(0.06234567901234567,0,0,0.06234567901234567,120.63888888888886,0)" xlink:href="#af"/><use transform="matrix(0.06234567901234567,0,0,0.06234567901234567,136.7864197530864,0)" xlink:href="#am"/><use transform="matrix(0.06234567901234567,0,0,0.06234567901234567,143.02098765432095,0)" xlink:href="#av"/><use transform="matrix(0.06234567901234567,0,0,0.06234567901234567,160.47777777777773,0)" xlink:href="#ai"/></g><g id="C"><use transform="matrix(0.06234567901234567,0,0,0.06234567901234567,0,0)" xlink:href="#au"/><use transform="matrix(0.06234567901234567,0,0,0.06234567901234567,13.279629629629627,0)" xlink:href="#an"/><use transform="matrix(0.06234567901234567,0,0,0.06234567901234567,29.427160493827152,0)" xlink:href="#ao"/><use transform="matrix(0.06234567901234567,0,0,0.06234567901234567,45.57469135802468,0)" xlink:href="#af"/><use transform="matrix(0.06234567901234567,0,0,0.06234567901234567,61.72222222222221,0)" xlink:href="#aq"/><use transform="matrix(0.06234567901234567,0,0,0.06234567901234567,79.179012345679,0)" xlink:href="#ag"/></g><g id="D"><use transform="matrix(0.06234567901234567,0,0,0.06234567901234567,0,0)" xlink:href="#ak"/><use transform="matrix(0.06234567901234567,0,0,0.06234567901234567,16.147530864197527,0)" xlink:href="#ae"/><use transform="matrix(0.06234567901234567,0,0,0.06234567901234567,31.11049382716049,0)" xlink:href="#ag"/><use transform="matrix(0.06234567901234567,0,0,0.06234567901234567,47.25802469135802,0)" xlink:href="#ae"/><use transform="matrix(0.06234567901234567,0,0,0.06234567901234567,62.22098765432098,0)" xlink:href="#as"/><use transform="matrix(0.06234567901234567,0,0,0.06234567901234567,75.87469135802468,0)" xlink:href="#am"/><use transform="matrix(0.06234567901234567,0,0,0.06234567901234567,82.10925925925925,0)" xlink:href="#al"/><use transform="matrix(0.06234567901234567,0,0,0.06234567901234567,98.25679012345677,0)" xlink:href="#am"/><use transform="matrix(0.06234567901234567,0,0,0.06234567901234567,104.49135802469134,0)" xlink:href="#an"/><use transform="matrix(0.06234567901234567,0,0,0.06234567901234567,120.63888888888886,0)" xlink:href="#af"/><use transform="matrix(0.06234567901234567,0,0,0.06234567901234567,136.7864197530864,0)" xlink:href="#am"/><use transform="matrix(0.06234567901234567,0,0,0.06234567901234567,143.02098765432095,0)" xlink:href="#av"/><use transform="matrix(0.06234567901234567,0,0,0.06234567901234567,160.47777777777773,0)" xlink:href="#ai"/></g><g id="E"><use transform="matrix(0.06234567901234567,0,0,0.06234567901234567,0,0)" xlink:href="#au"/><use transform="matrix(0.06234567901234567,0,0,0.06234567901234567,14.96296296296296,0)" xlink:href="#af"/><use transform="matrix(0.06234567901234567,0,0,0.06234567901234567,31.11049382716049,0)" xlink:href="#av"/><use transform="matrix(0.06234567901234567,0,0,0.06234567901234567,48.56728395061728,0)" xlink:href="#ao"/><use transform="matrix(0.06234567901234567,0,0,0.06234567901234567,64.71481481481482,0)" xlink:href="#aj"/><use transform="matrix(0.06234567901234567,0,0,0.06234567901234567,80.86234567901235,0)" xlink:href="#al"/><use transform="matrix(0.06234567901234567,0,0,0.06234567901234567,97.00987654320988,0)" xlink:href="#al"/><use transform="matrix(0.06234567901234567,0,0,0.06234567901234567,113.15740740740742,0)" xlink:href="#am"/><use transform="matrix(0.06234567901234567,0,0,0.06234567901234567,119.39197530864199,0)" xlink:href="#aq"/><use transform="matrix(0.06234567901234567,0,0,0.06234567901234567,136.8487654320988,0)" xlink:href="#ag"/></g><use transform="matrix(0.06234567901234567,0,0,0.06234567901234567,0,0)" xlink:href="#ar" id="F"/><g id="G"><use transform="matrix(0.06234567901234567,0,0,0.06234567901234567,0,0)" xlink:href="#ap"/><use transform="matrix(0.06234567901234567,0,0,0.06234567901234567,18.641358024691353,0)" xlink:href="#an"/><use transform="matrix(0.06234567901234567,0,0,0.06234567901234567,34.78888888888888,0)" xlink:href="#ag"/><use transform="matrix(0.06234567901234567,0,0,0.06234567901234567,50.936419753086405,0)" xlink:href="#ah"/><use transform="matrix(0.06234567901234567,0,0,0.06234567901234567,64.59012345679011,0)" xlink:href="#ae"/><use transform="matrix(0.06234567901234567,0,0,0.06234567901234567,79.55308641975307,0)" xlink:href="#ag"/><use transform="matrix(0.06234567901234567,0,0,0.06234567901234567,95.7006172839506,0)" xlink:href="#am"/><use transform="matrix(0.06234567901234567,0,0,0.06234567901234567,101.93518518518518,0)" xlink:href="#ap"/><use transform="matrix(0.06234567901234567,0,0,0.06234567901234567,120.57654320987653,0)" xlink:href="#am"/><use transform="matrix(0.06234567901234567,0,0,0.06234567901234567,126.8111111111111,0)" xlink:href="#ae"/><use transform="matrix(0.06234567901234567,0,0,0.06234567901234567,141.77407407407406,0)" xlink:href="#ag"/><use transform="matrix(0.06234567901234567,0,0,0.06234567901234567,157.9216049382716,0)" xlink:href="#ah"/><use transform="matrix(0.06234567901234567,0,0,0.06234567901234567,171.13888888888889,0)" xlink:href="#av"/></g><g id="H"><use transform="matrix(0.06234567901234567,0,0,0.06234567901234567,0,0)" xlink:href="#au"/><use transform="matrix(0.06234567901234567,0,0,0.06234567901234567,14.96296296296296,0)" xlink:href="#af"/><use transform="matrix(0.06234567901234567,0,0,0.06234567901234567,31.11049382716049,0)" xlink:href="#av"/><use transform="matrix(0.06234567901234567,0,0,0.06234567901234567,48.56728395061728,0)" xlink:href="#ao"/><use transform="matrix(0.06234567901234567,0,0,0.06234567901234567,64.71481481481482,0)" xlink:href="#aj"/><use transform="matrix(0.06234567901234567,0,0,0.06234567901234567,80.86234567901235,0)" xlink:href="#al"/><use transform="matrix(0.06234567901234567,0,0,0.06234567901234567,97.00987654320988,0)" xlink:href="#al"/><use transform="matrix(0.06234567901234567,0,0,0.06234567901234567,113.15740740740742,0)" xlink:href="#am"/><use transform="matrix(0.06234567901234567,0,0,0.06234567901234567,119.39197530864199,0)" xlink:href="#aq"/><use transform="matrix(0.06234567901234567,0,0,0.06234567901234567,136.8487654320988,0)" xlink:href="#ag"/></g><g id="I"><use transform="matrix(0.06234567901234567,0,0,0.06234567901234567,0,0)" xlink:href="#au"/><use transform="matrix(0.06234567901234567,0,0,0.06234567901234567,14.96296296296296,0)" xlink:href="#af"/><use transform="matrix(0.06234567901234567,0,0,0.06234567901234567,31.11049382716049,0)" xlink:href="#av"/><use transform="matrix(0.06234567901234567,0,0,0.06234567901234567,48.56728395061728,0)" xlink:href="#ao"/><use transform="matrix(0.06234567901234567,0,0,0.06234567901234567,64.71481481481482,0)" xlink:href="#aj"/><use transform="matrix(0.06234567901234567,0,0,0.06234567901234567,80.86234567901235,0)" xlink:href="#al"/><use transform="matrix(0.06234567901234567,0,0,0.06234567901234567,97.00987654320988,0)" xlink:href="#ah"/><use transform="matrix(0.06234567901234567,0,0,0.06234567901234567,110.66358024691358,0)" xlink:href="#am"/><use transform="matrix(0.06234567901234567,0,0,0.06234567901234567,116.89814814814815,0)" xlink:href="#az"/><use transform="matrix(0.06234567901234567,0,0,0.06234567901234567,131.86111111111111,0)" xlink:href="#am"/><use transform="matrix(0.06234567901234567,0,0,0.06234567901234567,138.09567901234567,0)" xlink:href="#ao"/><use transform="matrix(0.06234567901234567,0,0,0.06234567901234567,154.2432098765432,0)" xlink:href="#an"/><use transform="matrix(0.06234567901234567,0,0,0.06234567901234567,170.39074074074074,0)" xlink:href="#ao"/></g><g id="J"><use transform="matrix(0.06234567901234567,0,0,0.06234567901234567,0,0)" xlink:href="#am"/><use transform="matrix(0.06234567901234567,0,0,0.06234567901234567,6.234567901234566,0)" xlink:href="#ag"/><use transform="matrix(0.06234567901234567,0,0,0.06234567901234567,22.382098765432094,0)" xlink:href="#ao"/><use transform="matrix(0.06234567901234567,0,0,0.06234567901234567,38.529629629629625,0)" xlink:href="#am"/><use transform="matrix(0.06234567901234567,0,0,0.06234567901234567,44.764197530864195,0)" xlink:href="#ai"/><use transform="matrix(0.06234567901234567,0,0,0.06234567901234567,59.72716049382716,0)" xlink:href="#ah"/><use transform="matrix(0.06234567901234567,0,0,0.06234567901234567,73.38086419753085,0)" xlink:href="#af"/><use transform="matrix(0.06234567901234567,0,0,0.06234567901234567,89.52839506172839,0)" xlink:href="#am"/><use transform="matrix(0.06234567901234567,0,0,0.06234567901234567,95.76296296296296,0)" xlink:href="#an"/><use transform="matrix(0.06234567901234567,0,0,0.06234567901234567,111.91049382716048,0)" xlink:href="#ax"/></g><g id="K"><use transform="matrix(0.06234567901234567,0,0,0.06234567901234567,0,0)" xlink:href="#ap"/><use transform="matrix(0.06234567901234567,0,0,0.06234567901234567,18.641358024691353,0)" xlink:href="#an"/><use transform="matrix(0.06234567901234567,0,0,0.06234567901234567,34.78888888888888,0)" xlink:href="#ag"/><use transform="matrix(0.06234567901234567,0,0,0.06234567901234567,50.936419753086405,0)" xlink:href="#ah"/><use transform="matrix(0.06234567901234567,0,0,0.06234567901234567,64.59012345679011,0)" xlink:href="#ae"/><use transform="matrix(0.06234567901234567,0,0,0.06234567901234567,79.55308641975307,0)" xlink:href="#ag"/><use transform="matrix(0.06234567901234567,0,0,0.06234567901234567,95.7006172839506,0)" xlink:href="#am"/><use transform="matrix(0.06234567901234567,0,0,0.06234567901234567,101.93518518518518,0)" xlink:href="#ap"/><use transform="matrix(0.06234567901234567,0,0,0.06234567901234567,120.57654320987653,0)" xlink:href="#am"/><use transform="matrix(0.06234567901234567,0,0,0.06234567901234567,126.8111111111111,0)" xlink:href="#ae"/><use transform="matrix(0.06234567901234567,0,0,0.06234567901234567,141.77407407407406,0)" xlink:href="#ag"/><use transform="matrix(0.06234567901234567,0,0,0.06234567901234567,157.9216049382716,0)" xlink:href="#ah"/><use transform="matrix(0.06234567901234567,0,0,0.06234567901234567,171.13888888888889,0)" xlink:href="#av"/></g><g id="L"><use transform="matrix(0.06234567901234567,0,0,0.06234567901234567,0,0)" xlink:href="#au"/><use transform="matrix(0.06234567901234567,0,0,0.06234567901234567,14.96296296296296,0)" xlink:href="#ax"/><use transform="matrix(0.06234567901234567,0,0,0.06234567901234567,28.61666666666666,0)" xlink:href="#an"/><use transform="matrix(0.06234567901234567,0,0,0.06234567901234567,44.76419753086419,0)" xlink:href="#ag"/><use transform="matrix(0.06234567901234567,0,0,0.06234567901234567,60.911728395061715,0)" xlink:href="#ah"/><use transform="matrix(0.06234567901234567,0,0,0.06234567901234567,72.88209876543209,0)" xlink:href="#an"/></g><g id="M"><use transform="matrix(0.06234567901234567,0,0,0.06234567901234567,0,0)" xlink:href="#ao"/><use transform="matrix(0.06234567901234567,0,0,0.06234567901234567,16.147530864197527,0)" xlink:href="#am"/><use transform="matrix(0.06234567901234567,0,0,0.06234567901234567,22.382098765432094,0)" xlink:href="#ai"/><use transform="matrix(0.06234567901234567,0,0,0.06234567901234567,37.34506172839505,0)" xlink:href="#ah"/><use transform="matrix(0.06234567901234567,0,0,0.06234567901234567,50.99876543209875,0)" xlink:href="#af"/><use transform="matrix(0.06234567901234567,0,0,0.06234567901234567,67.14629629629627,0)" xlink:href="#am"/><use transform="matrix(0.06234567901234567,0,0,0.06234567901234567,73.38086419753084,0)" xlink:href="#ak"/><use transform="matrix(0.06234567901234567,0,0,0.06234567901234567,89.52839506172836,0)" xlink:href="#aj"/><use transform="matrix(0.06234567901234567,0,0,0.06234567901234567,105.6759259259259,0)" xlink:href="#al"/><use transform="matrix(0.06234567901234567,0,0,0.06234567901234567,121.82345679012343,0)" xlink:href="#am"/><use transform="matrix(0.06234567901234567,0,0,0.06234567901234567,128.05802469135799,0)" xlink:href="#aq"/><use transform="matrix(0.06234567901234567,0,0,0.06234567901234567,145.51481481481477,0)" xlink:href="#ag"/></g><g id="N"><use transform="matrix(0.06234567901234567,0,0,0.06234567901234567,0,0)" xlink:href="#ao"/><use transform="matrix(0.06234567901234567,0,0,0.06234567901234567,16.147530864197527,0)" xlink:href="#ae"/><use transform="matrix(0.06234567901234567,0,0,0.06234567901234567,31.11049382716049,0)" xlink:href="#au"/><use transform="matrix(0.06234567901234567,0,0,0.06234567901234567,46.07345679012345,0)" xlink:href="#ah"/><use transform="matrix(0.06234567901234567,0,0,0.06234567901234567,59.29074074074073,0)" xlink:href="#av"/><use transform="matrix(0.06234567901234567,0,0,0.06234567901234567,76.74753086419751,0)" xlink:href="#aw"/></g><g id="O"><use transform="matrix(0.06234567901234567,0,0,0.06234567901234567,0,0)" xlink:href="#ao"/><use transform="matrix(0.06234567901234567,0,0,0.06234567901234567,16.147530864197527,0)" xlink:href="#am"/><use transform="matrix(0.06234567901234567,0,0,0.06234567901234567,22.382098765432094,0)" xlink:href="#ai"/><use transform="matrix(0.06234567901234567,0,0,0.06234567901234567,37.34506172839505,0)" xlink:href="#ah"/><use transform="matrix(0.06234567901234567,0,0,0.06234567901234567,50.99876543209875,0)" xlink:href="#af"/><use transform="matrix(0.06234567901234567,0,0,0.06234567901234567,67.14629629629627,0)" xlink:href="#am"/><use transform="matrix(0.06234567901234567,0,0,0.06234567901234567,73.38086419753084,0)" xlink:href="#ak"/><use transform="matrix(0.06234567901234567,0,0,0.06234567901234567,89.52839506172836,0)" xlink:href="#aj"/><use transform="matrix(0.06234567901234567,0,0,0.06234567901234567,105.6759259259259,0)" xlink:href="#al"/><use transform="matrix(0.06234567901234567,0,0,0.06234567901234567,121.82345679012343,0)" xlink:href="#am"/><use transform="matrix(0.06234567901234567,0,0,0.06234567901234567,128.05802469135799,0)" xlink:href="#aq"/><use transform="matrix(0.06234567901234567,0,0,0.06234567901234567,145.51481481481477,0)" xlink:href="#ag"/></g><g id="P"><use transform="matrix(0.06234567901234567,0,0,0.06234567901234567,0,0)" xlink:href="#ap"/><use transform="matrix(0.06234567901234567,0,0,0.06234567901234567,18.641358024691353,0)" xlink:href="#an"/><use transform="matrix(0.06234567901234567,0,0,0.06234567901234567,34.78888888888888,0)" xlink:href="#ag"/><use transform="matrix(0.06234567901234567,0,0,0.06234567901234567,50.936419753086405,0)" xlink:href="#ah"/><use transform="matrix(0.06234567901234567,0,0,0.06234567901234567,64.59012345679011,0)" xlink:href="#ae"/><use transform="matrix(0.06234567901234567,0,0,0.06234567901234567,79.55308641975307,0)" xlink:href="#ag"/><use transform="matrix(0.06234567901234567,0,0,0.06234567901234567,95.7006172839506,0)" xlink:href="#am"/><use transform="matrix(0.06234567901234567,0,0,0.06234567901234567,101.93518518518518,0)" xlink:href="#ap"/><use transform="matrix(0.06234567901234567,0,0,0.06234567901234567,120.57654320987653,0)" xlink:href="#am"/><use transform="matrix(0.06234567901234567,0,0,0.06234567901234567,126.8111111111111,0)" xlink:href="#ae"/><use transform="matrix(0.06234567901234567,0,0,0.06234567901234567,141.77407407407406,0)" xlink:href="#ag"/><use transform="matrix(0.06234567901234567,0,0,0.06234567901234567,157.9216049382716,0)" xlink:href="#ah"/><use transform="matrix(0.06234567901234567,0,0,0.06234567901234567,171.13888888888889,0)" xlink:href="#av"/></g><use transform="matrix(0.06234567901234567,0,0,0.06234567901234567,0,0)" xlink:href="#an" id="Q"/><path d="M186 0v-106H76V0H24v-248h52v99h110v-99h50V0h-50" id="aB"/><g id="R"><use transform="matrix(0.06234567901234567,0,0,0.06234567901234567,0,0)" xlink:href="#ax"/><use transform="matrix(0.06234567901234567,0,0,0.06234567901234567,13.653703703703702,0)" xlink:href="#ae"/><use transform="matrix(0.06234567901234567,0,0,0.06234567901234567,28.61666666666666,0)" xlink:href="#al"/><use transform="matrix(0.06234567901234567,0,0,0.06234567901234567,44.76419753086419,0)" xlink:href="#aB"/><use transform="matrix(0.06234567901234567,0,0,0.06234567901234567,60.911728395061715,0)" xlink:href="#ae"/><use transform="matrix(0.06234567901234567,0,0,0.06234567901234567,75.87469135802468,0)" xlink:href="#af"/><use transform="matrix(0.06234567901234567,0,0,0.06234567901234567,92.02222222222221,0)" xlink:href="#am"/><use transform="matrix(0.06234567901234567,0,0,0.06234567901234567,98.25679012345678,0)" xlink:href="#an"/><use transform="matrix(0.06234567901234567,0,0,0.06234567901234567,114.4043209876543,0)" xlink:href="#ai"/></g><g id="S"><use transform="matrix(0.06234567901234567,0,0,0.06234567901234567,0,0)" xlink:href="#al"/><use transform="matrix(0.06234567901234567,0,0,0.06234567901234567,16.147530864197527,0)" xlink:href="#av"/><use transform="matrix(0.06234567901234567,0,0,0.06234567901234567,33.60432098765432,0)" xlink:href="#ag"/><use transform="matrix(0.06234567901234567,0,0,0.06234567901234567,49.751851851851846,0)" xlink:href="#ah"/><use transform="matrix(0.06234567901234567,0,0,0.06234567901234567,63.40555555555555,0)" xlink:href="#af"/><use transform="matrix(0.06234567901234567,0,0,0.06234567901234567,79.55308641975307,0)" xlink:href="#av"/><use transform="matrix(0.06234567901234567,0,0,0.06234567901234567,97.00987654320986,0)" xlink:href="#ax"/></g><g id="T"><use transform="matrix(0.06234567901234567,0,0,0.06234567901234567,0,0)" xlink:href="#ao"/><use transform="matrix(0.06234567901234567,0,0,0.06234567901234567,16.147530864197527,0)" xlink:href="#ae"/></g><g id="U"><use transform="matrix(0.06234567901234567,0,0,0.06234567901234567,0,0)" xlink:href="#al"/><use transform="matrix(0.06234567901234567,0,0,0.06234567901234567,16.147530864197527,0)" xlink:href="#an"/><use transform="matrix(0.06234567901234567,0,0,0.06234567901234567,32.295061728395055,0)" xlink:href="#ax"/><use transform="matrix(0.06234567901234567,0,0,0.06234567901234567,45.94876543209875,0)" xlink:href="#am"/><use transform="matrix(0.06234567901234567,0,0,0.06234567901234567,52.18333333333332,0)" xlink:href="#ao"/><use transform="matrix(0.06234567901234567,0,0,0.06234567901234567,68.33086419753084,0)" xlink:href="#an"/><use transform="matrix(0.06234567901234567,0,0,0.06234567901234567,84.47839506172838,0)" xlink:href="#ao"/></g></defs></g></svg>